<svg xmlns="http://www.w3.org/2000/svg" xmlns:xlink="http://www.w3.org/1999/xlink" version="1.1" id="Layer_1" x="0px" y="0px" viewBox="0 0 445.3 93.8" style="enable-background:new 0 0 445.3 93.8;" xml:space="preserve"><style type="text/css">
	.st0{fill:#101D2F;}
</style><path class="st0" d="M2.5,2.8V91h0.1h88.1V2.9V2.8H2.5z M34.7,79.9h-21h-0.1V58.8h21.1v0.1V79.9z M45.8,79.9V47.8v-0.1H13.5v-11  h43.2v0.1v43.2H45.8z M79.6,79.9H67.9V25.7v-0.1H13.5V13.9h66v0.1V79.9z"/><path class="st0" d="M125.1,74.3V19.2h39v10.2h-26.9v11.9h24.2v9.9h-24.2v13h26.9v10.2H125.1z"/><path class="st0" d="M200.1,30.3L190.6,44l-9.2-13.8h-13.1l15.5,21.2l-17,22.9h13.9l9.9-14.6l9.9,14.6h13.8l-16.8-22.9l8.5-11.5  h11.5v19.8c0,13.6,7.4,16.4,23.1,15.1v-9.6c-8.3,0.6-11-0.6-11-5.5V39.9h11v-9.6h-11.4V19.2h-11.7v11.1H200.1z"/><path class="st0" d="M264.9,75c-18.1,0-22-11.4-22-22.7c0-11,4-22.7,21.8-22.7c16.8,0,21.5,13.4,20.2,27.4H255c0.6,6.3,4.3,9,9.5,9  c5.3,0,7.1-2.3,8-4.9H285C284.2,68.4,279.1,75,264.9,75z M263.7,38.7c-5.9,0-8.5,4-8.8,9.1h17.7C272.6,43,270,38.8,263.7,38.7  L263.7,38.7z"/><path class="st0" d="M320.5,74.3v-25c0-6.3-1.3-9.9-8.6-9.9s-9,3.8-9,10.2v24.7h-11.8V30.2h4.9l2.8,6.9c3-4.6,7-7.6,16.6-7.6  c14,0,17,8.4,17,20.8v24L320.5,74.3z"/><path class="st0" d="M359.1,75c-15.1,0-21.7-5.8-21.7-17H349c0,4.6,2.8,7.9,9.8,7.9c6.4,0,8.4-2.8,8.4-4.5c0-7.2-28.8-1.9-29.1-17.5  c0-8,5.5-14.4,19.8-14.4c14.6,0,19.6,6.6,19.6,16.3h-11c-0.4-4.6-2.3-7.3-9-7.3c-5.9,0-7.8,2.5-7.8,4.7c0,6.3,29,1,29,17.7  C378.9,67.7,373.3,75,359.1,75z"/><path class="st0" d="M390.4,25.7c-4.6,0-7.6-1.2-7.6-6s3.2-6.1,7.6-6.1s7.4,1.2,7.4,6.1S394.8,25.7,390.4,25.7z M384.5,74.3V30.2  h11.9v44.1H384.5z"/><path class="st0" d="M423.5,75c-15.2,0-21.7-5.9-21.7-17h11.6c0,4.6,2.9,7.9,9.8,7.9c6.4,0,8.5-2.8,8.5-4.5  c0-7.2-28.8-1.9-29.1-17.5c0-8,5.5-14.4,19.8-14.4c14.6,0,19.6,6.6,19.6,16.3h-11c-0.4-4.6-2.3-7.3-9-7.3c-5.9,0-7.8,2.5-7.8,4.7  c0,6.3,29,1,29,17.7C443.3,67.7,437.7,75,423.5,75z"/></svg>